# xmcd
#
# Track frame offsets: 
#        150
#        15525
#        32005
#        54607
#        72935
#        95877
#        112267
#        129405
#        153065
#        168985
#        192970
#
# Disc length: 2963 seconds
#
# Revision: 6
# Processed by: cddbd v1.5.2PL0 Copyright (c) Steve Scherf et al.
# Submitted via: ExactAudioCopyFreeDBPlugin 1.0
#
DISCID=910b910b
DTITLE=永井真理子 - そんな場所へ
DYEAR=2002
DGENRE=JPop
TTITLE0=冒険者
TTITLE1=飛べない空
TTITLE2=同じ時代
TTITLE3=幼なじみ
TTITLE4=未来
TTITLE5=hello
TTITLE6=あなたが笑うと
TTITLE7=二人のまま
TTITLE8=おしゃれ☆レジスタンス
TTITLE9=Angel Smile
TTITLE10=ほんの少し
EXTD=YEAR: 2002
EXTT0=
EXTT1=
EXTT2=
EXTT3=
EXTT4=
EXTT5=
EXTT6=
EXTT7=
EXTT8=
EXTT9=
EXTT10=
PLAYORDER=
